<svg xmlns="http://www.w3.org/2000/svg" viewBox="0 0 64 64" aria-hidden="true">
  <defs>
    <linearGradient id="viberGradient" x1="12" y1="8" x2="52" y2="56" gradientUnits="userSpaceOnUse">
      <stop stop-color="#9D6CFF"/>
      <stop offset="1" stop-color="#665CAC"/>
    </linearGradient>
  </defs>
  <path fill="#fff" d="M32 5.5c-14.36 0-26 10.92-26 24.4 0 4.7 1.42 9.1 3.9 12.82L7.2 57.5l15.25-3.56A27.5 27.5 0 0 0 32 55.3c14.36 0 26-10.92 26-24.4S46.36 5.5 32 5.5Z"/>
  <path fill="url(#viberGradient)" d="M32 9.3c-12.13 0-21.98 9.22-21.98 20.6 0 4.48 1.52 8.63 4.1 12l-1.63 8.9 9.27-2.16A23.52 23.52 0 0 0 32 50.48c12.13 0 21.98-9.22 21.98-20.59C53.98 18.52 44.13 9.3 32 9.3Z"/>
  <path fill="#fff" d="M25.15 18.85c-.9-.3-1.69-.16-2.27.42l-1.3 1.3c-1.5 1.5-.77 5.95 2.03 11.37 2.8 5.4 7.74 10.35 13.14 13.14 5.43 2.8 9.87 3.53 11.37 2.03l1.3-1.3c.58-.58.72-1.37.42-2.27-.28-.84-1-1.7-2.06-2.47l-3.1-2.2c-1.2-.86-2.52-.7-3.45.23l-1.08 1.08c-.24.24-.66.31-1 .16-1.79-.79-3.75-2.16-5.6-4.01-1.86-1.86-3.23-3.82-4.02-5.61-.15-.34-.08-.76.16-1l1.08-1.08c.93-.93 1.09-2.25.23-3.45l-2.2-3.1c-.76-1.06-1.63-1.78-2.47-2.06l-1.18-.38Z"/>
  <path fill="#fff" d="M34.85 17.1c6.36.68 10.28 4.64 10.9 11 .08.8-.5 1.51-1.3 1.6-.78.08-1.5-.5-1.58-1.29-.5-4.97-3.34-7.86-8.32-8.4a1.45 1.45 0 0 1-1.29-1.59 1.43 1.43 0 0 1 1.59-1.31Zm.4 5.1c3.54.5 5.54 2.55 5.99 6.13.1.79-.46 1.52-1.25 1.62a1.45 1.45 0 0 1-1.62-1.25c-.3-2.25-1.35-3.34-3.52-3.65a1.45 1.45 0 0 1-1.23-1.63 1.43 1.43 0 0 1 1.63-1.22Z" opacity=".86"/>
</svg>
