<svg xmlns="http://www.w3.org/2000/svg" viewBox="0 0 64 64" aria-hidden="true">
  <defs>
    <linearGradient id="waGradient" x1="12" y1="8" x2="52" y2="56" gradientUnits="userSpaceOnUse">
      <stop stop-color="#55E36A"/>
      <stop offset="1" stop-color="#16B85B"/>
    </linearGradient>
  </defs>
  <path fill="#fff" d="M32 5.5c-14.36 0-26 10.92-26 24.4 0 4.7 1.42 9.1 3.9 12.82L7.2 57.5l15.25-3.56A27.5 27.5 0 0 0 32 55.3c14.36 0 26-10.92 26-24.4S46.36 5.5 32 5.5Z"/>
  <path fill="url(#waGradient)" d="M32 9.3c-12.13 0-21.98 9.22-21.98 20.6 0 4.48 1.52 8.63 4.1 12l-1.63 8.9 9.27-2.16A23.52 23.52 0 0 0 32 50.48c12.13 0 21.98-9.22 21.98-20.59C53.98 18.52 44.13 9.3 32 9.3Z"/>
  <path fill="#fff" d="M42.32 35.72c-.55-.27-3.28-1.53-3.78-1.7-.5-.18-.87-.27-1.24.27-.36.53-1.42 1.7-1.74 2.05-.32.36-.64.4-1.19.14-.55-.27-2.33-.8-4.43-2.57-1.64-1.38-2.75-3.08-3.07-3.61-.32-.53-.03-.82.24-1.08.25-.24.55-.62.82-.93.28-.31.37-.53.55-.89.18-.35.09-.66-.05-.93-.14-.27-1.24-2.82-1.69-3.86-.45-1.01-.9-.87-1.24-.89h-1.06c-.37 0-.96.13-1.47.66-.5.54-1.92 1.78-1.92 4.34s1.97 5.04 2.24 5.39c.27.36 3.88 5.6 9.4 7.85 1.31.53 2.34.85 3.14 1.09 1.32.4 2.52.34 3.47.21 1.06-.15 3.28-1.27 3.74-2.5.46-1.22.46-2.27.32-2.49-.14-.22-.5-.36-1.05-.63Z"/>
</svg>
